<svg width="48" height="12" viewBox="0 0 48 12" fill="none" xmlns="http://www.w3.org/2000/svg">
<path d="M0 0.153912V11.4115H2.30868V4.05669H2.40213L5.31547 11.3565H6.88757L9.80091 4.08417H9.89436V11.4115H12.203V0.153912H9.26771L6.16748 7.7176H6.03556L2.93533 0.153912H0Z" fill="black"/>
<path d="M24.5091 5.7827C24.5091 2.0998 22.2225 0 19.2377 0C16.2364 0 13.9662 2.0998 13.9662 5.7827C13.9662 9.44911 16.2364 11.5654 19.2377 11.5654C22.2225 11.5654 24.5091 9.4656 24.5091 5.7827ZM22.096 5.7827C22.096 8.16834 20.9637 9.4601 19.2377 9.4601C17.5061 9.4601 16.3793 8.16834 16.3793 5.7827C16.3793 3.39706 17.5061 2.1053 19.2377 2.1053C20.9637 2.1053 22.096 3.39706 22.096 5.7827Z" fill="black"/>
<path d="M35.6884 0.153912H33.3192V7.23387H33.2203L28.3611 0.153912H26.2723V11.4115H28.6524V4.32603H28.7349L33.6326 11.4115H35.6884V0.153912Z" fill="black"/>
<path d="M48 5.7827C48 2.0998 45.7133 0 42.7285 0C39.7272 0 37.457 2.0998 37.457 5.7827C37.457 9.44911 39.7272 11.5654 42.7285 11.5654C45.7133 11.5654 48 9.4656 48 5.7827ZM45.5869 5.7827C45.5869 8.16834 44.4545 9.4601 42.7285 9.4601C40.997 9.4601 39.8701 8.16834 39.8701 5.7827C39.8701 3.39706 40.997 2.1053 42.7285 2.1053C44.4545 2.1053 45.5869 3.39706 45.5869 5.7827Z" fill="black"/>
</svg>
